<svg width="32" height="45" viewBox="0 0 32 45" fill="none" xmlns="http://www.w3.org/2000/svg">
<path fill-rule="evenodd" clip-rule="evenodd" d="M16.453 0.0108533C18.4689 0.0658317 19.4219 0.175788 20.3932 0.469006C21.1079 0.670594 22.3357 1.1654 23.1421 1.55025C23.9484 1.95342 25.2312 2.75977 25.9826 3.34621C26.734 3.95097 27.8519 5.06886 28.4566 5.82023C29.0614 6.55328 29.9044 7.87276 30.3259 8.73409C30.7474 9.59541 31.2605 10.9149 31.4805 11.6663C31.682 12.4176 31.902 13.8654 31.9753 14.8733C32.0302 15.9363 31.9936 17.2741 31.8653 18.0804C31.737 18.8318 31.4988 19.9497 31.2972 20.5544C31.1139 21.1592 30.7841 22.0755 30.5642 22.5703C30.3442 23.0834 29.7945 24.073 29.3363 24.7694C28.8781 25.4842 27.9435 26.6021 27.2838 27.2618C26.624 27.9215 25.7077 28.7096 25.2496 29.0211C24.7914 29.3326 22.3174 30.7987 19.7517 32.2831C18.8789 32.7882 17.9381 33.3335 17.0262 33.8621L17.0223 33.8643C15.2552 34.8887 13.5969 35.8499 12.7512 36.3332C11.2301 37.2129 10.2771 37.6527 10.0389 37.5977C9.6907 37.5061 9.67237 37.3412 9.65405 34.7205C9.65405 33.0528 9.56241 31.6601 9.43413 31.2752C9.2692 30.7804 8.88435 30.4139 7.6565 29.5892C6.79517 29.0211 5.69561 28.1781 5.18247 27.7383C4.68767 27.2984 3.84467 26.3638 3.31321 25.6674C2.78175 24.971 2.03038 23.7432 1.62721 22.9368C1.24236 22.1305 0.784202 21.0126 0.637593 20.4628C0.472658 19.913 0.252747 18.7951 0.142791 17.9888C0.0145079 17.1458 -0.0404716 15.8629 0.0328329 14.965C0.0878113 14.1036 0.307726 12.7475 0.509313 11.9412C0.7109 11.1348 1.16905 9.85198 1.53558 9.10061C1.9021 8.34924 2.54351 7.23134 2.98334 6.62658C3.40484 6.02182 3.95463 5.34375 4.19286 5.12384C4.4311 4.90393 4.92591 4.42745 5.2741 4.06093C5.6223 3.6944 6.53861 2.99801 7.28998 2.48488C8.04135 1.99007 9.32418 1.33033 10.1305 1.01879C10.9369 0.707246 12.0914 0.340723 12.6962 0.194114C13.4476 0.0291794 14.6388 -0.0257989 16.453 0.0108533ZM21.8226 32.7413C21.8959 32.7413 22.0792 32.8879 22.2441 33.0712C22.4823 33.3277 22.5373 33.6943 22.4823 35.0504C22.4274 36.4249 22.3357 36.8097 22.0425 37.1212C21.6943 37.5061 21.5294 37.5244 17.8825 37.5061C15.5734 37.5061 14.0706 37.4328 14.0706 37.3228C14.0706 37.2312 14.4188 36.9563 14.8403 36.6997C15.2802 36.4615 16.9845 35.4719 18.6522 34.5006C20.3199 33.5476 21.731 32.7413 21.8226 32.7413ZM22.0242 39.0088C21.7676 38.8439 20.2832 38.7889 15.9766 38.7889C10.6986 38.7889 10.2588 38.8072 9.94727 39.1188C9.764 39.3021 9.61739 39.6869 9.63572 39.9435C9.65405 40.2184 9.83731 40.6032 10.0389 40.8048C10.3871 41.153 10.662 41.1713 15.9399 41.1713C20.9979 41.1896 21.5294 41.153 21.9325 40.8598C22.2441 40.6215 22.3724 40.3466 22.3724 39.8885C22.3724 39.467 22.2441 39.1738 22.0242 39.0088ZM15.9399 42.2709C18.4689 42.2709 19.202 42.3259 19.5135 42.5458C19.8067 42.729 19.935 43.0039 19.935 43.4254C19.935 43.737 19.7884 44.1585 19.6051 44.3417C19.3302 44.635 18.9271 44.6716 16.0865 44.6533C13.5392 44.6533 12.7878 44.5983 12.4579 44.3784C12.1892 44.1951 12.0548 43.9202 12.0548 43.5537C12.0548 43.2422 12.2197 42.839 12.4213 42.6374C12.7512 42.3075 13.0261 42.2709 15.9399 42.2709ZM13.6713 2.46241C13.4514 2.51738 12.7001 2.71897 12.022 2.92056C11.3439 3.10382 10.2444 3.54365 9.58462 3.89184C8.92488 4.22171 7.89862 4.89978 7.29386 5.39458C6.6891 5.87106 5.79112 6.76904 5.31464 7.35548C4.81983 7.96024 4.10511 9.11479 3.73859 9.92114C3.35374 10.7275 2.87726 11.9737 2.71233 12.6701C2.49241 13.5131 2.38246 14.6309 2.38246 15.8771C2.38246 17.0317 2.51074 18.3145 2.694 19.0842C2.85894 19.7806 3.35374 21.1184 3.81189 22.0164C4.36168 23.1526 5.00309 24.0872 5.86442 25.0219C6.54249 25.7732 7.80699 26.8545 8.66832 27.4226C9.52964 27.9907 10.5009 28.7604 10.8125 29.1269C11.1423 29.5118 11.5455 30.2448 11.6921 30.7763C11.8387 31.2894 11.967 32.2057 11.967 32.7921C11.967 33.5069 12.0403 33.8367 12.1869 33.8367C12.3152 33.8367 12.5535 33.7268 12.7001 33.5802C12.8467 33.4519 15.4123 31.9491 18.3812 30.2448C23.5125 27.3126 23.879 27.0561 25.455 25.4983C26.7195 24.2338 27.2877 23.5008 27.8558 22.3829C28.2773 21.5765 28.7904 20.2937 28.992 19.5423C29.2119 18.791 29.4318 17.4165 29.5051 16.5185C29.5784 15.309 29.5234 14.4477 29.3035 13.3115C29.1203 12.4501 28.7721 11.2589 28.5338 10.6542C28.2773 10.0494 27.7092 9.02316 27.2877 8.36342C26.8478 7.70368 25.9132 6.64076 25.2168 5.98102C24.5204 5.32128 23.4941 4.51493 22.9444 4.18506C22.3946 3.87352 21.2034 3.34206 20.3054 3.01219C18.8393 2.51738 18.3812 2.44408 16.3653 2.3891C15.1008 2.37078 13.8913 2.3891 13.6713 2.46241Z" fill="#F2AA10"/>
<path fill-rule="evenodd" clip-rule="evenodd" d="M15.2333 4.1754C14.8098 4.14562 14.201 4.14426 13.8815 4.16725L13.8749 4.16773C13.556 4.19823 13.2049 4.24611 13.0995 4.26877C13.0791 4.27316 13.0503 4.27928 13.015 4.28679C12.868 4.31802 12.6086 4.37315 12.3751 4.42641C12.0855 4.49246 11.615 4.64689 11.3298 4.7729C11.0445 4.89892 10.6643 5.09958 10.4922 5.21745C10.3129 5.32831 10.0852 5.51045 9.98576 5.61556C9.8863 5.72066 9.53217 5.91191 9.21365 6.04032C8.89513 6.16874 8.38507 6.42395 8.08364 6.60388C7.78167 6.7763 7.2797 7.14395 6.9709 7.40727C6.66264 7.6781 6.18423 8.1872 5.91572 8.54557C5.6472 8.90394 5.32402 9.43199 5.19812 9.72736C5.07169 10.0152 4.80911 10.456 4.60624 10.7042C4.40949 10.9444 4.13144 11.3562 3.99619 11.6146C3.85429 11.8734 3.66492 12.309 3.57787 12.5864C3.49083 12.8639 3.39353 13.2778 3.35649 13.5065C3.32609 13.7347 3.32395 14.2622 3.35363 14.6745C3.39266 15.1237 3.47594 15.63 3.56516 15.9401C3.6461 16.2281 3.84035 16.6963 3.98837 16.987C4.1596 17.3212 4.39018 17.6436 4.63478 17.8822C5.00169 18.24 5.01662 18.2615 5.09324 18.7683C5.15404 19.1482 5.24775 19.4278 5.44164 19.798C5.62671 20.1388 5.84848 20.4318 6.13463 20.6899C6.36376 20.8994 6.77186 21.179 7.03606 21.3181C7.30638 21.4494 7.78066 21.6262 8.10098 21.7086C8.37098 21.7781 8.69374 21.8544 8.89039 21.901C8.92704 21.9096 8.95931 21.9173 8.98605 21.9236L9.29144 21.9845C9.25709 22.5294 9.12689 23.3224 8.97565 24.1017C8.75157 25.2631 8.71327 25.5672 8.77101 25.8117C8.81885 26.0116 8.9327 26.1993 9.13468 26.4033C9.34331 26.6067 9.51058 26.7002 9.69961 26.7242C9.86201 26.7502 10.0739 26.7199 10.2298 26.6559C10.4307 26.5661 10.6785 26.2921 11.3746 25.368C11.8627 24.7151 12.3718 24.0757 12.5096 23.9452C12.6468 23.8073 13.1621 23.4387 13.6545 23.1244C14.4923 22.5895 14.5867 22.5073 15.1003 21.8375L15.6507 21.1198C16.1804 21.3227 16.5838 21.4444 16.883 21.5132C17.3187 21.6175 17.6003 21.6273 18.2929 21.585C19.0183 21.5328 19.2357 21.487 19.6442 21.3069C19.91 21.1898 20.2902 20.9891 20.4817 20.8623C20.6733 20.7355 21.0448 20.4149 21.2999 20.148C21.5554 19.8885 21.8267 19.5676 21.9045 19.4414L22.0414 19.2055C22.9194 19.3231 23.4811 19.3204 23.9469 19.2868C24.5054 19.2391 24.8876 19.1588 25.2327 19.0285C25.4996 18.9264 25.9187 18.7079 26.1679 18.5468C26.4167 18.3782 26.7766 18.081 26.9694 17.8788C27.1688 17.6761 27.4551 17.2863 27.6031 17.0195C27.7573 16.7447 27.965 16.2852 28.0637 15.9843C28.1558 15.6838 28.2576 15.2395 28.2797 14.9893C28.3018 14.7391 28.3097 14.3844 28.2963 14.197C28.2828 14.0096 28.2087 13.6307 28.1344 13.3422C28.0601 13.0537 27.872 12.5776 27.7167 12.2799C27.5615 11.9821 27.3775 11.6563 27.3101 11.5557C27.236 11.4556 27.1117 11.2159 27.03 11.0108C26.9489 10.8132 26.7822 10.4485 26.6512 10.2093C26.527 9.96966 26.2484 9.53767 26.0399 9.24378C25.8314 8.94989 25.4243 8.49703 25.1381 8.23887C24.8581 7.97273 24.3908 7.6146 24.1106 7.43889C23.837 7.2627 23.4061 7.03757 23.1579 6.93489C22.9092 6.82472 22.4631 6.66849 22.1561 6.58511C21.6646 6.44722 21.5665 6.38647 21.2047 6.00568C20.9872 5.77272 20.6257 5.48985 20.3964 5.37074C20.1743 5.25866 19.7764 5.12155 19.5121 5.07278C19.2067 5.01189 18.8718 5.00587 18.5739 5.04992C18.1236 5.11248 18.0964 5.1069 17.69 4.84987C17.459 4.70828 16.9831 4.50899 16.6351 4.4135C16.2932 4.31004 15.6569 4.20518 15.2333 4.1754ZM12.5558 5.54367C12.7921 5.48144 13.0884 5.41491 13.2137 5.39082C13.3391 5.36672 13.6508 5.32921 13.9098 5.30303C14.1687 5.27685 14.65 5.27233 14.9788 5.28633C15.3081 5.30782 15.7804 5.36422 16.0248 5.41443C16.2687 5.45714 16.6588 5.57974 17.3286 5.87055L17.12 6.22461C17.007 6.42109 16.9135 6.60865 16.9167 6.65362C16.92 6.69859 16.6961 6.65444 16.4284 6.5607C16.0034 6.41801 15.7883 6.40336 15.0276 6.42801C14.1731 6.45186 14.1204 6.46319 13.9914 6.62316C13.9114 6.71933 13.8562 6.88152 13.8637 6.98646C13.8713 7.09139 13.9492 7.244 14.0416 7.32022C14.1783 7.45353 14.2459 7.46372 14.5288 7.39815C14.713 7.35475 15.1134 7.34099 15.4294 7.36345C15.7454 7.3859 16.1727 7.46814 16.7567 7.68225L16.8439 8.15062C16.8889 8.40354 16.9792 8.72854 17.0427 8.86712C17.1062 9.0057 17.2368 9.14698 17.3332 9.18524C17.4477 9.22723 17.5586 9.21924 17.6659 9.16129C17.7625 9.10913 17.8342 8.99095 17.8522 8.86911C17.8702 8.74727 17.8335 8.51635 17.7812 8.34683C17.7283 8.16982 17.674 7.8799 17.6605 7.69252C17.647 7.50514 17.663 7.26289 17.6948 7.14759C17.7194 7.02527 17.8191 6.82974 17.9103 6.70263C18.0014 6.57552 18.1898 6.40374 18.3308 6.31825C18.4718 6.23275 18.7065 6.14804 18.8529 6.1375C18.9993 6.12696 19.3163 6.1644 19.5618 6.2296C19.8484 6.30692 20.1192 6.44563 20.3185 6.6121C20.5538 6.81365 20.7412 7.09399 21.1212 7.82004C21.393 8.34293 21.7793 8.97058 21.9784 9.22748C22.1775 9.48437 22.598 9.93628 22.9207 10.237C23.4011 10.6846 23.5345 10.7729 23.7209 10.7595C23.834 10.7514 23.9827 10.6804 24.0439 10.6007C24.1056 10.5284 24.1491 10.3897 24.136 10.3002C24.1279 10.1878 23.9154 9.93183 23.507 9.55439C23.1694 9.23213 22.7036 8.70814 22.473 8.38571C22.2352 8.05626 22.0611 7.77496 22.08 7.75854C22.0983 7.73461 22.3588 7.82134 22.6618 7.94267C22.9649 8.06399 23.423 8.29471 23.6893 8.46388C23.9491 8.63353 24.3095 8.90141 24.4888 9.06932C24.6742 9.22925 24.9719 9.55439 25.1494 9.79024C25.3336 10.0256 25.5818 10.407 25.7055 10.6392C25.8437 10.8854 25.9379 11.1725 25.9509 11.3524C25.9627 11.5173 25.9446 11.7295 25.9117 11.8298C25.8782 11.9227 25.777 12.0957 25.6858 12.2228C25.6007 12.342 25.3853 12.5082 25.2038 12.589C24.9768 12.6882 24.7389 12.728 24.4112 12.729C24.0901 12.7295 23.8114 12.6667 23.5283 12.5439C23.238 12.4141 22.9412 12.1944 22.5378 11.794C22.2207 11.4778 21.6637 10.8022 21.2932 10.3015C20.9221 9.79325 20.5671 9.32156 20.5018 9.25092C20.4293 9.17326 20.2919 9.12288 20.1921 9.13007C20.0856 9.13774 19.9569 9.20728 19.8957 9.28703C19.834 9.35928 19.791 9.50552 19.7986 9.61045C19.8062 9.71539 20.0128 10.0772 20.2732 10.4427C20.5259 10.7937 20.8954 11.2794 21.438 11.941L21.2853 12.0499C21.1954 12.1016 20.9857 12.1619 20.8127 12.1744C20.5931 12.1902 20.3752 12.1381 20.1193 12.0209C19.8833 11.9023 19.5855 11.6676 19.3382 11.3915C19.0333 11.0594 18.8916 10.949 18.7657 10.9656C18.6726 10.9723 18.5504 11.0414 18.4893 11.1211C18.4281 11.2009 18.3862 11.3621 18.4031 11.5041C18.4172 11.6989 18.5139 11.8351 18.9461 12.2636C19.2997 12.6224 19.5965 12.8421 19.8801 12.9723C20.2325 13.1278 20.3744 13.1477 20.8668 13.1123C21.3393 13.0782 21.4902 13.0372 22.0975 12.6469L22.2918 12.8364C22.4063 12.9411 22.681 13.1323 22.9114 13.2664C23.1418 13.4005 23.5279 13.5611 23.7734 13.6262C24.0189 13.6914 24.4092 13.7236 24.6488 13.7064C24.8883 13.6891 25.2766 13.6009 25.523 13.4927C25.8738 13.3469 26.0254 13.223 26.6646 12.4386L26.875 12.8529C26.9915 13.0781 27.1343 13.4822 27.2004 13.7487C27.295 14.1336 27.3095 14.336 27.2732 14.7605C27.2477 15.0562 27.1581 15.4846 27.0811 15.7161C26.9925 15.9711 26.7544 16.3801 26.4731 16.7469C26.1862 17.1292 25.8868 17.4295 25.663 17.5737C25.471 17.693 25.1224 17.8688 24.8877 17.9535C24.6014 18.0645 24.2253 18.1368 23.7329 18.1723C23.267 18.2058 22.8041 18.1864 22.4588 18.1284C22.1606 18.0745 21.8043 17.957 21.6714 17.8762C21.5385 17.7953 21.3392 17.6289 21.2302 17.5086C21.114 17.3814 21.0012 17.2087 20.9748 17.1202C20.9478 17.0242 20.9665 16.8194 21.0089 16.6657C21.0676 16.458 21.1471 16.3544 21.2708 16.3078C21.3757 16.2776 21.8785 16.2942 22.398 16.3547C23.0654 16.4272 23.5006 16.4335 23.8717 16.3842C24.2355 16.3279 24.5101 16.2403 24.7538 16.0947C24.9465 15.9828 25.2236 15.7444 25.3715 15.568C25.5565 15.3513 25.6322 15.1951 25.6164 15.0682C25.6089 14.9632 25.5454 14.8247 25.4734 14.7545C25.4081 14.6839 25.2707 14.6335 25.1714 14.6482C25.065 14.6558 24.9112 14.7498 24.8184 14.8544C24.7189 14.9595 24.5423 15.1079 24.4213 15.1919C24.3002 15.276 24.0062 15.3725 23.7682 15.4122C23.497 15.4543 22.9875 15.4383 22.3943 15.3755C21.8283 15.3183 21.3388 15.3008 21.1746 15.3428C21.0165 15.3768 20.8023 15.4676 20.7001 15.5352C20.528 15.6531 20.4742 15.6494 20.1517 15.537C19.9534 15.4759 19.5994 15.298 19.3685 15.1564C19.137 15.0073 18.7965 14.738 18.6156 14.5476C18.428 14.3577 18.1564 14.0232 18.0138 13.8074C17.8712 13.5916 17.6624 13.1998 17.5431 12.9372C17.4305 12.6741 17.2805 12.263 17.2028 12.0199C17.1318 11.7764 17.0323 11.324 16.9902 11.0181C16.9415 10.7127 16.8578 10.3873 16.8048 10.3007C16.729 10.178 16.6393 10.1393 16.4663 10.1518C16.2866 10.1647 16.21 10.2154 16.1353 10.3865C16.0541 10.5581 16.0577 10.701 16.1239 11.1559C16.1726 11.4612 16.2435 11.7952 16.3372 12.0747L15.8676 12.0558C15.6059 12.0445 15.2622 12.009 15.0915 11.961C14.9214 11.9205 14.6388 11.8052 14.451 11.7057C14.2699 11.6058 14.0203 11.3902 13.8947 11.2259C13.7753 11.0537 13.6134 10.7565 13.5451 10.5504C13.4773 10.3519 13.3604 9.75006 13.2882 9.2128C13.2167 8.68303 13.0976 8.0512 13.021 7.82316C12.9505 7.58714 12.8202 7.26501 12.7352 7.10539C12.6501 6.94576 12.4427 6.66686 12.2762 6.4905C12.103 6.31462 11.8411 6.11498 11.4134 5.93482L11.7708 5.78855C11.9661 5.71421 12.319 5.59839 12.5558 5.54367ZM9.62244 7.07336C9.75261 7.03324 9.88437 6.99105 9.9918 6.95665L9.99186 6.95663C10.095 6.9236 10.1758 6.89775 10.2111 6.88782C10.2827 6.86006 10.4613 6.83214 10.6071 6.8141C10.753 6.79606 11.0091 6.82283 11.1798 6.87081C11.3505 6.91879 11.5886 7.0674 11.7114 7.19417C11.8276 7.32142 12.01 7.62472 12.1143 7.86584C12.244 8.18047 12.3336 8.58839 12.4298 9.27461C12.5019 9.81187 12.6055 10.4147 12.66 10.6142C12.7151 10.8212 12.8608 11.1723 13.2083 11.8178L12.8779 12.0601C12.6935 12.1939 12.3885 12.5097 12.2061 12.764C12.0243 13.0257 11.8133 13.4402 11.7313 13.6947C11.6493 13.9492 11.5643 14.3471 11.5405 14.5749C11.5065 14.939 11.5186 15.0134 11.6369 15.1707C11.7182 15.2778 11.8506 15.3512 11.9648 15.358C12.0923 15.3639 12.1961 15.3188 12.2562 15.224C12.304 15.1452 12.3839 14.8607 12.431 14.5861C12.4714 14.312 12.5725 13.9506 12.6405 13.7799C12.7151 13.6088 12.8959 13.3321 13.0443 13.1632C13.1926 12.9943 13.4653 12.7863 13.962 12.532L14.2944 12.6889C14.4744 12.7739 14.7969 12.8863 15.0142 12.9309C15.2248 12.976 15.676 13.0189 16.6341 13.0403L16.7715 13.3695C16.8449 13.5525 17.0377 13.9078 17.1903 14.1681C17.3494 14.4278 17.6171 14.8003 17.7924 15.0062C17.9672 15.2046 18.3187 15.5334 18.5734 15.726C18.8286 15.9261 19.2694 16.1957 20.0849 16.5589L20.1172 17.0086C20.1343 17.3389 20.1899 17.5534 20.3358 17.8141C20.4369 18.0103 20.6575 18.2882 21.1331 18.6684L20.7763 19.1009C20.579 19.3336 20.2923 19.6255 20.134 19.7499C19.9752 19.8668 19.6677 20.0547 19.4479 20.1609C19.222 20.2751 18.8231 20.4018 18.5652 20.443C18.2945 20.4926 17.8603 20.5012 17.5776 20.4764C17.301 20.4436 16.8465 20.3557 16.5794 20.2695C16.3062 20.1912 15.7256 19.9317 15.3003 19.6911C14.8688 19.4584 14.4467 19.2628 14.3668 19.2686C14.2803 19.2748 14.1587 19.3513 14.0915 19.4391C14.0242 19.5268 13.9751 19.681 13.9827 19.7859C13.9902 19.8909 14.0537 20.0295 14.1256 20.0996C14.2037 20.1618 14.3587 20.2712 14.4773 20.338C14.6922 20.4431 14.6933 20.4581 14.6213 20.6667C14.5828 20.7824 14.3949 21.0521 14.2165 21.2684C13.9942 21.5255 13.6082 21.832 13.052 22.1885C12.5984 22.4849 12.052 22.8859 11.8459 23.0891C11.6392 23.2848 11.1051 23.9486 10.6537 24.5537C9.9954 25.4449 9.82149 25.6307 9.79289 25.5122C9.77364 25.4307 9.82489 25.0277 9.90942 24.6223C9.9934 24.2094 10.1123 23.5379 10.1768 23.1339C10.2409 22.7224 10.2828 22.2825 10.2741 22.1625C10.2585 21.9452 10.2712 21.9367 10.5996 21.8528C10.7899 21.8014 11.0635 21.6988 11.2045 21.6134C11.346 21.5354 11.5649 21.3237 11.6928 21.1487C11.8212 20.9813 11.9537 20.6854 11.9935 20.4942C12.0399 20.3025 12.0631 20.0673 12.0555 19.9624C12.048 19.8574 11.9924 19.6429 11.9406 19.4809C11.8744 19.3049 11.6953 19.0465 11.4722 18.829C11.2636 18.6256 10.9258 18.3937 10.6633 18.277C10.4145 18.1669 9.98395 18.0396 9.70571 17.9843C9.42802 17.9365 8.9568 17.8951 8.66238 17.8937C8.13343 17.8866 8.12678 17.8871 7.98937 18.1155C7.91815 18.2411 7.85413 18.3738 7.85736 18.4188C7.8606 18.4638 7.92859 18.5719 8.00269 18.672C8.12769 18.8288 8.21636 18.8525 8.73866 18.8601C9.06689 18.8666 9.53253 18.9235 9.77749 18.9812C10.0225 19.0389 10.366 19.1649 10.5537 19.2644C10.7349 19.3643 10.9557 19.5518 11.0386 19.6815C11.1581 19.8537 11.1933 19.9717 11.1735 20.1615C11.1633 20.2978 11.0703 20.4929 10.9647 20.606C10.853 20.727 10.6538 20.8393 10.4691 20.8752C10.2588 20.928 9.91008 20.9155 9.40954 20.8385C8.99714 20.7778 8.41909 20.6461 8.11819 20.5548C7.81729 20.4634 7.38186 20.2688 7.15093 20.1272C6.92611 19.9776 6.6333 19.7199 6.50722 19.5482C6.3878 19.376 6.24301 19.1302 6.18725 19.0062C6.13761 18.8741 6.0815 18.6521 6.07124 18.5097C6.05433 18.3678 6.07483 18.0951 6.11457 17.9039C6.16097 17.7122 6.32355 17.369 6.48038 17.1317C6.63775 16.9018 6.87947 16.6358 7.01382 16.5508C7.14097 16.4588 7.3746 16.3591 7.53269 16.3251C7.68359 16.2841 7.97801 16.2855 8.18143 16.3236C8.38484 16.3617 8.74113 16.4792 8.96991 16.5908C9.19814 16.6949 9.62404 16.943 9.91253 17.1407C10.201 17.3384 10.6269 17.5865 10.8557 17.6981C11.0839 17.8022 11.5167 17.9594 11.817 18.0433C12.1174 18.1271 12.5463 18.2318 12.7692 18.261C12.9925 18.2977 13.5348 18.3038 13.974 18.2722C14.5335 18.2394 14.9163 18.1667 15.7513 17.873L16.2544 18.3566C16.556 18.6438 16.9369 18.9178 17.2072 19.049C17.4565 19.1666 17.8272 19.2982 18.0312 19.3438C18.2351 19.3893 18.5051 19.4226 18.6249 19.414C18.7779 19.403 18.8673 19.3438 18.9563 19.1867C19.0275 19.0611 19.0788 18.9368 19.0756 18.8918C19.0723 18.8469 19.0115 18.7458 18.938 18.6531C18.8428 18.5394 18.6705 18.469 18.3662 18.4231C18.1223 18.3803 17.8015 18.2904 17.6491 18.2185C17.4968 18.1466 17.2027 17.9644 17.004 17.8054C16.7991 17.6544 16.627 17.4935 16.6238 17.4485C16.6205 17.4036 16.7828 17.2412 16.9849 17.076C17.1804 16.9112 17.4059 16.6991 17.486 16.6029C17.5782 16.4908 17.6151 16.3525 17.6038 16.1951C17.5914 16.0227 17.5367 15.9136 17.4315 15.8459C17.3406 15.7921 17.2237 15.7478 17.1705 15.7517C17.1173 15.7555 16.8757 15.9311 16.6302 16.1447C16.3847 16.3582 16.0038 16.6418 15.7723 16.7715C15.5409 16.9012 15.072 17.0781 14.7313 17.178C14.2914 17.2925 13.9404 17.3404 13.5389 17.3392C13.224 17.3317 12.7251 17.2772 12.4263 17.2158C12.1276 17.1545 11.5996 16.974 11.2611 16.8251C10.9082 16.6622 10.474 16.392 10.2532 16.2045C10.0168 15.988 9.78895 15.703 9.64866 15.4268C9.53103 15.1867 9.37329 14.7611 9.31231 14.4716C9.24306 14.1602 9.19522 13.6814 9.19269 13.2748C9.18621 12.9061 9.21714 12.4066 9.25418 12.1779C9.29123 11.9492 9.45596 11.3572 9.62826 10.8701C9.79389 10.3836 9.95197 9.79206 9.97571 9.56432C9.99945 9.33659 9.99027 8.93041 9.95753 8.66153C9.91814 8.39314 9.82731 8.06065 9.75051 7.92303C9.68036 7.78493 9.51777 7.57061 9.16525 7.22682L9.62244 7.07336ZM7.82824 8.16691C7.72554 8.22705 7.50954 8.38575 7.35235 8.52515C7.19516 8.66455 6.89841 9.00235 6.69104 9.28097C6.47702 9.56008 6.24232 9.92355 6.16049 10.0877C6.07812 10.2443 5.98154 10.5752 5.94557 10.8189C5.90907 11.0551 5.89702 11.5381 5.92239 11.8904C5.94883 12.2577 6.03985 12.7785 6.13787 13.118C6.23482 13.4425 6.38537 13.8611 6.47314 14.0582C6.56702 14.2474 6.64365 14.4754 6.65066 14.5729C6.66379 14.6623 6.62027 14.8011 6.55858 14.8733C6.49743 14.9531 6.37531 15.0221 6.28215 15.0288C6.18899 15.0355 6.05985 15.0072 5.99618 14.959C5.93251 14.9109 5.79762 14.7096 5.70931 14.505C5.61488 14.3084 5.46434 13.8898 5.36901 13.5878C5.28034 13.2852 5.15713 12.7818 5.10838 12.4764L5.01467 11.9181C4.70245 12.5056 4.55426 12.8629 4.4906 13.0935C4.42028 13.3246 4.3496 13.7365 4.33018 14.0242C4.30897 14.3798 4.33217 14.7021 4.40844 15.111C4.47103 15.4229 4.59604 15.8584 4.68489 16.0705C4.76655 16.2756 4.94389 16.6019 5.07159 16.7961C5.19209 16.9833 5.32986 17.1316 5.36313 17.1292C5.40306 17.1263 5.53039 16.9439 5.65449 16.7165C5.77247 16.497 5.97318 16.2189 6.09152 16.0973C6.20987 15.9758 6.42479 15.8021 6.56471 15.7016C6.70518 15.6086 6.99708 15.4821 7.2129 15.4139C7.44869 15.3441 7.75372 15.3071 7.97602 15.3288C8.17727 15.3369 8.42115 15.3796 8.51702 15.4104C8.68212 15.4738 8.68824 15.4659 8.61719 15.2223C8.5742 15.0898 8.4983 14.7789 8.44056 14.5344C8.38175 14.2749 8.33893 13.7732 8.33425 13.3366C8.33119 12.9224 8.36175 12.325 8.41283 12.0124C8.4639 11.6999 8.64266 11.024 8.81333 10.5144C9.06709 9.76536 9.12806 9.49728 9.11942 9.09859C9.11402 8.74487 9.07948 8.54394 8.98722 8.3773C8.91761 8.24669 8.80088 8.11195 8.72444 8.07225C8.64801 8.03255 8.45952 8.01598 8.30646 8.027C8.14729 8.046 7.93093 8.10678 7.82824 8.16691Z" fill="#F2AA10"/>
<path fill-rule="evenodd" clip-rule="evenodd" d="M16.453 0.0108533C18.4689 0.0658317 19.4219 0.175788 20.3932 0.469006C21.1079 0.670594 22.3357 1.1654 23.1421 1.55025C23.9484 1.95342 25.2312 2.75977 25.9826 3.34621C26.734 3.95097 27.8519 5.06886 28.4566 5.82023C29.0614 6.55328 29.9044 7.87276 30.3259 8.73409C30.7474 9.59541 31.2605 10.9149 31.4805 11.6663C31.682 12.4176 31.902 13.8654 31.9753 14.8733C32.0302 15.9363 31.9936 17.2741 31.8653 18.0804C31.737 18.8318 31.4988 19.9497 31.2972 20.5544C31.1139 21.1592 30.7841 22.0755 30.5642 22.5703C30.3442 23.0834 29.7945 24.073 29.3363 24.7694C28.8781 25.4842 27.9435 26.6021 27.2838 27.2618C26.624 27.9215 25.7077 28.7096 25.2496 29.0211C24.7914 29.3326 22.3174 30.7987 19.7517 32.2831C18.8789 32.7882 17.9381 33.3335 17.0262 33.8621L17.0223 33.8643C15.2552 34.8887 13.5969 35.8499 12.7512 36.3332C11.2301 37.2129 10.2771 37.6527 10.0389 37.5977C9.6907 37.5061 9.67237 37.3412 9.65405 34.7205C9.65405 33.0528 9.56241 31.6601 9.43413 31.2752C9.2692 30.7804 8.88435 30.4139 7.6565 29.5892C6.79517 29.0211 5.69561 28.1781 5.18247 27.7383C4.68767 27.2984 3.84467 26.3638 3.31321 25.6674C2.78175 24.971 2.03038 23.7432 1.62721 22.9368C1.24236 22.1305 0.784202 21.0126 0.637593 20.4628C0.472658 19.913 0.252747 18.7951 0.142791 17.9888C0.0145079 17.1458 -0.0404716 15.8629 0.0328329 14.965C0.0878113 14.1036 0.307726 12.7475 0.509313 11.9412C0.7109 11.1348 1.16905 9.85198 1.53558 9.10061C1.9021 8.34924 2.54351 7.23134 2.98334 6.62658C3.40484 6.02182 3.95463 5.34375 4.19286 5.12384C4.4311 4.90393 4.92591 4.42745 5.2741 4.06093C5.6223 3.6944 6.53861 2.99801 7.28998 2.48488C8.04135 1.99007 9.32418 1.33033 10.1305 1.01879C10.9369 0.707246 12.0914 0.340723 12.6962 0.194114C13.4476 0.0291794 14.6388 -0.0257989 16.453 0.0108533ZM21.8226 32.7413C21.8959 32.7413 22.0792 32.8879 22.2441 33.0712C22.4823 33.3277 22.5373 33.6943 22.4823 35.0504C22.4274 36.4249 22.3357 36.8097 22.0425 37.1212C21.6943 37.5061 21.5294 37.5244 17.8825 37.5061C15.5734 37.5061 14.0706 37.4328 14.0706 37.3228C14.0706 37.2312 14.4188 36.9563 14.8403 36.6997C15.2802 36.4615 16.9845 35.4719 18.6522 34.5006C20.3199 33.5476 21.731 32.7413 21.8226 32.7413ZM22.0242 39.0088C21.7676 38.8439 20.2832 38.7889 15.9766 38.7889C10.6986 38.7889 10.2588 38.8072 9.94727 39.1188C9.764 39.3021 9.61739 39.6869 9.63572 39.9435C9.65405 40.2184 9.83731 40.6032 10.0389 40.8048C10.3871 41.153 10.662 41.1713 15.9399 41.1713C20.9979 41.1896 21.5294 41.153 21.9325 40.8598C22.2441 40.6215 22.3724 40.3466 22.3724 39.8885C22.3724 39.467 22.2441 39.1738 22.0242 39.0088ZM15.9399 42.2709C18.4689 42.2709 19.202 42.3259 19.5135 42.5458C19.8067 42.729 19.935 43.0039 19.935 43.4254C19.935 43.737 19.7884 44.1585 19.6051 44.3417C19.3302 44.635 18.9271 44.6716 16.0865 44.6533C13.5392 44.6533 12.7878 44.5983 12.4579 44.3784C12.1892 44.1951 12.0548 43.9202 12.0548 43.5537C12.0548 43.2422 12.2197 42.839 12.4213 42.6374C12.7512 42.3075 13.0261 42.2709 15.9399 42.2709ZM13.6713 2.46241C13.4514 2.51738 12.7001 2.71897 12.022 2.92056C11.3439 3.10382 10.2444 3.54365 9.58462 3.89184C8.92488 4.22171 7.89862 4.89978 7.29386 5.39458C6.6891 5.87106 5.79112 6.76904 5.31464 7.35548C4.81983 7.96024 4.10511 9.11479 3.73859 9.92114C3.35374 10.7275 2.87726 11.9737 2.71233 12.6701C2.49241 13.5131 2.38246 14.6309 2.38246 15.8771C2.38246 17.0317 2.51074 18.3145 2.694 19.0842C2.85894 19.7806 3.35374 21.1184 3.81189 22.0164C4.36168 23.1526 5.00309 24.0872 5.86442 25.0219C6.54249 25.7732 7.80699 26.8545 8.66832 27.4226C9.52964 27.9907 10.5009 28.7604 10.8125 29.1269C11.1423 29.5118 11.5455 30.2448 11.6921 30.7763C11.8387 31.2894 11.967 32.2057 11.967 32.7921C11.967 33.5069 12.0403 33.8367 12.1869 33.8367C12.3152 33.8367 12.5535 33.7268 12.7001 33.5802C12.8467 33.4519 15.4123 31.9491 18.3812 30.2448C23.5125 27.3126 23.879 27.0561 25.455 25.4983C26.7195 24.2338 27.2877 23.5008 27.8558 22.3829C28.2773 21.5765 28.7904 20.2937 28.992 19.5423C29.2119 18.791 29.4318 17.4165 29.5051 16.5185C29.5784 15.309 29.5234 14.4477 29.3035 13.3115C29.1203 12.4501 28.7721 11.2589 28.5338 10.6542C28.2773 10.0494 27.7092 9.02316 27.2877 8.36342C26.8478 7.70368 25.9132 6.64076 25.2168 5.98102C24.5204 5.32128 23.4941 4.51493 22.9444 4.18506C22.3946 3.87352 21.2034 3.34206 20.3054 3.01219C18.8393 2.51738 18.3812 2.44408 16.3653 2.3891C15.1008 2.37078 13.8913 2.3891 13.6713 2.46241Z" fill="#F2AA10"/>
</svg>
